<svg xmlns="http://www.w3.org/2000/svg" width="81" height="32" viewBox="0 0 81 32" fill="none">
    <path d="M78.3706 19.675C78.6532 19.2608 78.8468 18.7768 78.9223 18.2523L79.6985 12.865C79.7295 12.6811 79.745 12.4934 79.745 12.2998C79.745 10.4279 78.2273 8.90835 76.3535 8.90835H73.3783L74.0655 4.13478C74.2048 3.16109 73.9164 2.17386 73.2718 1.43053C72.6272 0.687197 71.6922 0.259391 70.7089 0.259391H64.7874C63.1013 0.259391 61.6708 1.49828 61.4308 3.1669L60.579 9.08064C60.2422 8.96836 59.8822 8.90835 59.5086 8.90835H56.5333L57.2205 4.13478C57.3599 3.16109 57.0715 2.17386 56.4268 1.43053C55.7822 0.687197 54.8473 0.259391 53.8639 0.259391H47.9424C46.721 0.259391 45.6331 0.909809 45.0349 1.90285C43.8522 0.725912 42.2223 0 40.4259 0C38.8715 0 37.4409 0.545885 36.3163 1.45376C35.6949 0.722039 34.7677 0.259391 33.734 0.259391H14.9203C11.1205 0.259391 8.54977 1.00466 6.32558 2.75265C3.66005 4.84714 2.93026 8.01597 2.61473 10.215L0.0343715 28.1207C-0.105003 29.0944 0.183423 30.0817 0.82803 30.825C1.47264 31.5683 2.40761 31.9961 3.39097 31.9961H9.31246C10.9985 31.9961 12.429 30.7572 12.6691 29.0886L13.5285 23.1226H21.5464C21.5581 23.1226 21.5697 23.1226 21.5813 23.1226L20.8612 28.1227C20.7218 29.0964 21.0102 30.0836 21.6548 30.8269C22.2994 31.5703 23.2344 31.9981 24.2178 31.9981H40.2071C41.8932 31.9981 43.3237 30.7592 43.5637 29.0906L43.827 27.2651C44.8491 28.8447 46.2912 30.1262 48.0315 30.9237C49.9905 31.8219 52.023 31.9981 54.8724 31.9981H59.2337C60.8113 31.9981 62.1625 30.914 62.5284 29.41C63.2291 30.0178 64.017 30.5308 64.8764 30.9257C66.8354 31.8238 68.868 32 71.7174 32H76.0787C77.7647 32 79.1952 30.7611 79.4353 29.0925L80.2676 23.3123C80.2986 23.1284 80.3141 22.9407 80.3141 22.7471C80.3141 21.3901 79.5185 20.2209 78.3687 19.6789L78.3706 19.675Z"
          fill="#7087FC"></path>
    <path d="M11.3844 14.2626H22.3388L21.551 19.7312H10.5965L9.31699 28.6047H3.39551L5.97587 10.6989C6.31657 8.33923 7.0057 6.5351 8.42654 5.41817C9.91707 4.2451 11.6728 3.64889 14.9249 3.64889H23.8661L23.0222 9.51037H14.5745C13.7557 9.51037 13.0878 9.57037 12.5884 9.95172C12.1703 10.2692 11.8838 10.7841 11.756 11.6687L11.3824 14.2626H11.3844ZM30.1419 28.6066L33.7366 3.65083H27.8151L24.2204 28.6066H30.1419ZM40.2117 28.6066L42.5617 12.2998H36.6402L34.2902 28.6066H40.2117ZM43.5818 6.54478C43.5818 8.28696 42.1707 9.69813 40.4304 9.69813C38.6902 9.69813 37.2771 8.28696 37.2771 6.54478C37.2771 4.8026 38.6882 3.39143 40.4304 3.39143C42.1726 3.39143 43.5818 4.80454 43.5818 6.54478ZM47.947 3.65083H53.8684L52.6218 12.2998H59.5112L58.7233 17.7683H51.834L51.4971 20.1125C51.3926 20.8384 51.4565 21.4695 51.7914 21.9399C52.2095 22.5283 52.9025 22.7432 54.2459 22.7432H60.0822L59.2382 28.6047H54.877C52.0566 28.6047 50.688 28.4072 49.4491 27.84C47.1475 26.7851 45.7363 24.4931 45.5621 22.0405C45.5118 21.334 45.5853 20.0409 45.8138 18.4632L47.9489 3.65083H47.947ZM64.79 3.65083H70.7115L69.4648 12.2998H76.3542L75.5663 17.7683H68.677L68.3402 20.1125C68.2356 20.8384 68.2995 21.4695 68.6344 21.9399C69.0525 22.5283 69.7455 22.7432 71.0889 22.7432H76.9252L76.0813 28.6047H71.72C68.8996 28.6047 67.531 28.4072 66.2921 27.84C63.9905 26.7851 62.5793 24.4931 62.4051 22.0405C62.3548 21.334 62.4284 20.0409 62.6568 18.4632L64.7919 3.65083H64.79Z"
          fill="white"></path>
</svg>